<svg width="20" height="21" viewBox="0 0 20 21" fill="none" xmlns="http://www.w3.org/2000/svg">
<path d="M14.4205 7.26541C14.7256 7.57059 14.7256 8.06528 14.4205 8.3703L9.17938 13.6115C8.87421 13.9166 8.37967 13.9166 8.07449 13.6115L5.57953 11.1164C5.27435 10.8114 5.27435 10.3167 5.57953 10.0117C5.88455 9.70651 6.37924 9.70651 6.68427 10.0117L8.62686 11.9543L13.3156 7.26541C13.6208 6.96039 14.1154 6.96039 14.4205 7.26541ZM20 10.4385C20 15.966 15.5267 20.4385 10 20.4385C4.4725 20.4385 0 15.9652 0 10.4385C0 4.91098 4.47327 0.438477 10 0.438477C15.5275 0.438477 20 4.91174 20 10.4385ZM18.4375 10.4385C18.4375 5.77463 14.6632 2.00098 10 2.00098C5.33615 2.00098 1.5625 5.77524 1.5625 10.4385C1.5625 15.1023 5.33676 18.876 10 18.876C14.6638 18.876 18.4375 15.1017 18.4375 10.4385Z" fill="#FF2A2A"/>
</svg>
